<svg xmlns="http://www.w3.org/2000/svg" width="729" height="110" viewBox="0 0 729 110">
  <defs>
    <style>
      .cls-1 {
        fill: red;
      }

      .cls-2, .cls-3, .cls-4 {
        fill-rule: evenodd;
      }

      .cls-3 {
        fill: #fff;
      }

      .cls-4 {
        fill: #ed2024;
      }
    </style>
  </defs>
  <rect class="cls-1" width="101" height="110"/>
  <path id="IMPORTS" class="cls-2" d="M225.222,10.133H207.4V99h17.823V10.133Zm41.015,0H242.861V99h17.822V38.209l0.366-.061L283.022,99h12.085L317.08,38.27l0.366,0.061V99h17.822V10.133H312.014L289.187,75.624H288.82ZM385.622,66.773q15.319,0,24.109-7.751t8.789-20.508q0-12.756-8.789-20.569t-24.109-7.812h-34V99h17.823V66.773h16.174ZM369.448,23.866h16.174q7.507,0,11.322,4.181a15.11,15.11,0,0,1,3.815,10.59,14.438,14.438,0,0,1-3.845,10.345q-3.846,4.06-11.292,4.059H369.448V23.866ZM503.176,46.571q0-16.3-10.376-27.008T465.883,8.851q-16.419,0-26.642,10.712T429.018,46.571V62.562q0,16.358,10.254,27.039t26.733,10.681q16.54,0,26.856-10.651t10.315-27.069V46.571ZM485.415,62.562q0,10.56-5.127,17.212t-14.283,6.653q-9.094,0-14.16-6.653t-5.066-17.212V46.449q0-10.376,5.036-17.029t14.068-6.653q9.156,0,14.344,6.653t5.188,17.029V62.562Zm63.842,0.916q6.653,0,10.285,3.693t3.631,10.345V83.8a56.828,56.828,0,0,0,.7,8.728q0.7,4.518,3.144,6.47H585.39V97.718a10.694,10.694,0,0,1-3.448-6.012,32.272,32.272,0,0,1-1.007-7.782V77.394a24.588,24.588,0,0,0-3.449-13.428q-3.448-5.432-11.322-7.751a25.292,25.292,0,0,0,10.59-8.026,19.489,19.489,0,0,0,3.631-11.81q0-12.39-8.575-19.318t-23.773-6.928H517.275V99H535.1V63.478h14.16ZM535.1,23.866h12.94q7.14,0,10.833,3.6t3.693,9.7q0,6.226-3.662,9.4t-11.17,3.174H535.1V23.866ZM655.825,10.133H587.587V23.866h25.025V99h17.822V23.866h25.391V10.133ZM707.186,83.8q-3.755,2.991-10.895,2.991-7.935,0-12.573-3.723t-4.639-11.6H661.806l-0.122.366q-0.306,14.161,9.979,21.3t24.628,7.141q14.649,0,23.56-6.592t8.911-18.005q0-10.925-7.691-17.609T698.732,47.242q-9.582-3.234-13.488-6.134a8.863,8.863,0,0,1-3.907-7.416,10.335,10.335,0,0,1,3.6-8.118q3.6-3.173,10.193-3.174,7.263,0,11.292,3.57t4.028,10.223h17.273l0.122-.366q0.3-12.085-8.7-19.531T695.375,8.851q-13.916,0-22.888,6.928t-8.972,17.853q0,10.865,7.965,17.151t23.346,10.925q8.973,2.747,12.543,5.859a10.4,10.4,0,0,1,3.57,8.24A9.7,9.7,0,0,1,707.186,83.8Z"/>
  <path id="H" class="cls-3" d="M101.017,11.133H83.195V49.341H47V11.133H29.179V100H47V63.074H83.195V100h17.822V11.133Z"/>
  <path id="H-2" data-name="H" class="cls-4" d="M172.017,11.133H154.2V49.341H118V11.133H100.179V100H118V63.074H154.2V100h17.822V11.133Z"/>
</svg>
